External Loads File
version=1
nRows=39
nColumns=13
Range=5.000000e-03-10 seconds
endheader
time 	forceRightX 	forceRightY 	forceRightZ 	pointRightX 	pointRightY 	pointRightZ 	forceLeftX 	forceLeftY 	forceLeftZ 	pointLeftX 	pointLeftY 	pointLeftZ 		
0.005000 25.655087 135.258784 -0.000000 0.336049 0.360834 -0.115290 22.655085 162.472013 -0.000000 0.019192 0.279199 -0.360409
0.010000 25.727219 135.912358 -0.000000 0.336005 0.360853 -0.115259 24.236373 162.806872 -0.000000 0.019186 0.279197 -0.360423
0.015000 25.780937 136.562955 -0.000000 0.336032 0.360896 -0.115280 25.680833 163.130893 -0.000000 0.019180 0.279191 -0.360424
0.020000 25.843783 137.202499 -0.000000 0.335993 0.360914 -0.115225 26.860666 163.424271 -0.000000 0.019192 0.279157 -0.360419
0.025000 25.798444 137.838753 -0.000000 0.335948 0.361272 -0.115318 27.585929 163.704204 -0.000000 0.019259 0.279154 -0.360465
0.030000 25.889727 138.405835 -0.000000 0.335851 0.361268 -0.115285 28.194243 163.921887 -0.000000 0.019170 0.279072 -0.360408
0.035000 25.979259 138.910074 -0.000000 0.335804 0.361290 -0.115315 28.594577 164.103016 -0.000000 0.019154 0.279049 -0.360371
0.040000 26.024553 139.347814 -0.000000 0.335790 0.361345 -0.115275 28.760450 164.249247 -0.000000 0.019172 0.278991 -0.360378
0.045000 26.075734 139.712003 -0.000000 0.335759 0.361408 -0.115266 28.716552 164.342012 -0.000000 0.019214 0.278942 -0.360382
0.050000 26.089762 140.018863 -0.000000 0.335741 0.361641 -0.115223 28.382358 164.386113 -0.000000 0.019232 0.278886 -0.360386
0.055000 26.211880 140.241281 -0.000000 0.335782 0.361702 -0.115308 27.950283 164.354291 -0.000000 0.019256 0.278825 -0.360389
0.060000 26.371631 140.386146 -0.000000 0.335795 0.361740 -0.115320 27.400782 164.272434 -0.000000 0.019276 0.278786 -0.360386
0.065000 26.567940 140.458238 -0.000000 0.335441 0.361606 -0.115973 26.812074 164.160407 -0.000000 0.019298 0.278714 -0.360392
0.070000 27.281272 140.382959 -0.000000 0.341013 0.361795 -0.122162 26.835845 163.947037 -0.000000 0.019353 0.278674 -0.360394
0.075000 28.019803 140.264580 -0.000000 0.346533 0.361844 -0.124659 26.998163 163.739288 -0.000000 0.019367 0.278648 -0.360397
0.080000 28.466253 140.167744 -0.000000 0.349565 0.361853 -0.125784 27.018625 163.602694 -0.000000 0.019407 0.278611 -0.360410
0.085000 28.668155 140.084105 -0.000000 0.350547 0.361875 -0.125788 27.002653 163.527922 -0.000000 0.019399 0.278589 -0.360414
0.090000 28.749375 139.993104 -0.000000 0.349904 0.361715 -0.124915 27.103886 163.487361 -0.000000 0.019396 0.278586 -0.360414
0.095000 28.599506 139.923237 -0.000000 0.348061 0.361723 -0.123418 27.173419 163.495117 -0.000000 0.019385 0.278581 -0.360414
0.100000 28.339546 139.857173 -0.000000 0.345452 0.361706 -0.121542 27.302613 163.519040 -0.000000 0.019283 0.278588 -0.360285
0.105000 27.974576 139.804686 -0.000000 0.342510 0.361689 -0.119554 27.424826 163.552797 -0.000000 0.019307 0.278612 -0.360360
0.110000 27.559275 139.763601 -0.000000 0.339663 0.361680 -0.117683 27.529637 163.586806 -0.000000 0.019283 0.278632 -0.360361
0.115000 27.133734 139.728041 -0.000000 0.337341 0.361681 -0.116193 27.609802 163.619506 -0.000000 0.019277 0.278628 -0.360371
0.120000 26.786328 139.676279 -0.000000 0.335968 0.361669 -0.115336 27.758958 163.640138 -0.000000 0.019256 0.278659 -0.360354
0.125000 26.504803 139.603832 -0.000000 0.335994 0.361664 -0.115360 28.002731 163.653200 -0.000000 0.019243 0.278636 -0.360369
0.130000 26.158244 139.536217 -0.000000 0.335994 0.361659 -0.115357 28.236493 163.685004 -0.000000 0.019248 0.278628 -0.360346
0.135000 25.754663 139.486195 -0.000000 0.335926 0.361672 -0.115352 28.472424 163.739336 -0.000000 0.019248 0.278627 -0.360353
0.140000 25.353344 139.468042 -0.000000 0.335919 0.361690 -0.115386 28.722511 163.815081 -0.000000 0.019234 0.278597 -0.360342
0.145000 25.044871 139.498830 -0.000000 0.335908 0.361717 -0.115328 28.990979 163.904917 -0.000000 0.019221 0.278590 -0.360357
0.150000 24.880960 139.601366 -0.000000 0.335921 0.361750 -0.115341 29.230718 164.005084 -0.000000 0.019223 0.278557 -0.360339
0.155000 25.410297 139.687177 -0.000000 0.340800 0.361795 -0.122026 30.040287 164.001497 -0.000000 0.019238 0.278517 -0.360359
0.160000 25.558427 139.927824 -0.000000 0.340782 0.361843 -0.122030 30.215373 164.124761 -0.000000 0.019250 0.278480 -0.360363
0.165000 25.777755 140.198355 -0.000000 0.340733 0.361883 -0.122038 30.425793 164.281048 -0.000000 0.019277 0.278439 -0.360359
0.170000 26.551304 140.358469 -0.000000 0.346266 0.361941 -0.124367 31.396468 164.359356 -0.000000 0.019311 0.278370 -0.360363
0.175000 26.725369 140.577983 -0.000000 0.346539 0.362003 -0.124636 31.896764 164.603773 -0.000000 0.019349 0.278315 -0.360363
0.180000 26.790017 140.726506 -0.000000 0.346507 0.362066 -0.124637 32.539857 164.895017 -0.000000 0.019386 0.278267 -0.360368
0.185000 26.793025 140.767369 -0.000000 0.346479 0.362117 -0.124631 33.330276 165.209572 -0.000000 0.019414 0.278198 -0.360365
0.190000 26.790884 140.694734 -0.000000 0.346455 0.362169 -0.124629 34.227566 165.522759 -0.000000 0.019451 0.278160 -0.360381
0.195000 26.818788 140.545856 -0.000000 0.346477 0.362212 -0.124476 35.157138 165.814123 -0.000000 0.019469 0.278124 -0.360382
